<svg preserveAspectRatio="none" overflow="visible" style="display: block;" width="18" height="15" viewBox="0 0 18 15" fill="none" xmlns="http://www.w3.org/2000/svg">
<g id="Icons">
<g id="Group 4">
<path id="Rectangle 28" d="M8.42017 10.5871C8.42017 7.9861 10.1566 5.87755 12.2986 5.87755H14.1215C16.2635 5.87755 18 7.9861 18 10.5871C18 11.3674 17.4791 12 16.8365 12H9.58371C8.9411 12 8.42017 11.3674 8.42017 10.5871Z" fill="#003CFF"/>
<path id="Ellipse 21" d="M15.2269 2.44898C15.2269 3.80151 14.3239 4.89796 13.2101 4.89796C12.0962 4.89796 11.1933 3.80151 11.1933 2.44898C11.1933 1.09645 12.0962 0 13.2101 0C14.3239 0 15.2269 1.09645 15.2269 2.44898Z" fill="#003CFF"/>
</g>
<foreignObject x="-2.68657" y="0.0685382" width="17.9782" height="17.2981"><div xmlns="http://www.w3.org/1999/xhtml" style="backdrop-filter:blur(1.34px);clip-path:url(#bgblur_0_0_179_clip_path);height:100%;width:100%"></div></foreignObject><path id="Union" data-figma-bg-blur-radius="2.68657" d="M12.605 5.38011C12.605 3.93036 11.6372 2.75511 10.4433 2.75511H2.16176C0.967855 2.75511 0 3.93036 0 5.38011V10.3816C0 11.8314 0.967855 13.0066 2.16176 13.0066H3.78268C4.36249 13.0066 4.918 13.2895 5.32443 13.7916L5.86202 14.4558C6.10406 14.7548 6.50098 14.7548 6.74302 14.4558L7.28061 13.7916C7.68704 13.2895 8.24255 13.0066 8.82236 13.0066H10.4433C11.6372 13.0066 12.605 11.8314 12.605 10.3816V5.38011Z" fill="url(#paint0_linear_0_179)" fill-opacity="0.3"/>
<foreignObject x="-2.68657" y="0.0685382" width="17.9782" height="17.2981"><div xmlns="http://www.w3.org/1999/xhtml" style="backdrop-filter:blur(1.34px);clip-path:url(#bgblur_1_0_179_clip_path);height:100%;width:100%"></div></foreignObject><g id="Union (Stroke)" data-figma-bg-blur-radius="2.68657">
<path fill-rule="evenodd" clip-rule="evenodd" d="M10.4433 2.83011H2.16176C1.00197 2.83011 0.0617647 3.97178 0.0617647 5.38011V10.3816C0.0617647 11.79 1.00197 12.9316 2.16176 12.9316H3.78268C4.37906 12.9316 4.95044 13.2226 5.36848 13.739L5.90607 14.4032C6.12391 14.6723 6.48114 14.6723 6.69897 14.4032L7.23656 13.739C7.6546 13.2226 8.22598 12.9316 8.82236 12.9316H10.4433C11.6031 12.9316 12.5433 11.79 12.5433 10.3816V5.38011C12.5433 3.97178 11.6031 2.83011 10.4433 2.83011ZM10.4433 2.75511C11.6372 2.75511 12.605 3.93036 12.605 5.38011V10.3816C12.605 11.8314 11.6372 13.0066 10.4433 13.0066H8.82236C8.24255 13.0066 7.68704 13.2895 7.28061 13.7916L6.74302 14.4558C6.50098 14.7548 6.10406 14.7548 5.86202 14.4558L5.32443 13.7916C4.918 13.2895 4.36249 13.0066 3.78268 13.0066H2.16176C0.967855 13.0066 0 11.8314 0 10.3816V5.38011C0 3.93036 0.967855 2.75511 2.16176 2.75511H10.4433Z" fill="url(#paint1_linear_0_179)"/>
<path fill-rule="evenodd" clip-rule="evenodd" d="M10.4433 2.83011H2.16176C1.00197 2.83011 0.0617647 3.97178 0.0617647 5.38011V10.3816C0.0617647 11.79 1.00197 12.9316 2.16176 12.9316H3.78268C4.37906 12.9316 4.95044 13.2226 5.36848 13.739L5.90607 14.4032C6.12391 14.6723 6.48114 14.6723 6.69897 14.4032L7.23656 13.739C7.6546 13.2226 8.22598 12.9316 8.82236 12.9316H10.4433C11.6031 12.9316 12.5433 11.79 12.5433 10.3816V5.38011C12.5433 3.97178 11.6031 2.83011 10.4433 2.83011ZM10.4433 2.75511C11.6372 2.75511 12.605 3.93036 12.605 5.38011V10.3816C12.605 11.8314 11.6372 13.0066 10.4433 13.0066H8.82236C8.24255 13.0066 7.68704 13.2895 7.28061 13.7916L6.74302 14.4558C6.50098 14.7548 6.10406 14.7548 5.86202 14.4558L5.32443 13.7916C4.918 13.2895 4.36249 13.0066 3.78268 13.0066H2.16176C0.967855 13.0066 0 11.8314 0 10.3816V5.38011C0 3.93036 0.967855 2.75511 2.16176 2.75511H10.4433Z" fill="url(#paint2_radial_0_179)"/>
</g>
<g id="Vector">
<path d="M5.30865 7.02551C5.30865 7.65951 4.88778 8.17347 4.36861 8.17347C3.84944 8.17347 3.42857 7.65951 3.42857 7.02551C3.42857 6.39151 3.84944 5.87755 4.36861 5.87755C4.88778 5.87755 5.30865 6.39151 5.30865 7.02551Z" fill="white"/>
<path d="M6.81271 7.02551C6.81271 7.65951 6.39184 8.17347 5.87267 8.17347C5.3535 8.17347 4.93263 7.65951 4.93263 7.02551C4.93263 6.39151 5.3535 5.87755 5.87267 5.87755C6.39184 5.87755 6.81271 6.39151 6.81271 7.02551Z" fill="white"/>
<path d="M5.12064 9.55102L3.65527 7.77168L6.58601 7.77168L5.12064 9.55102Z" fill="white"/>
<path d="M5.68466 7.65689C5.68466 7.87879 5.47423 8.05867 5.21464 8.05867C4.95506 8.05867 4.74462 7.87879 4.74462 7.65689C4.74462 7.43499 4.95506 7.2551 5.21464 7.2551C5.47423 7.2551 5.68466 7.43499 5.68466 7.65689Z" fill="white"/>
</g>
<path id="1" d="M9.12605 5.87755V9.55102H8.76409V6.34391H8.74657L8.01681 6.93941V6.4874L8.76409 5.87755H9.12605Z" fill="white"/>
</g>
<defs>
<clipPath id="bgblur_0_0_179_clip_path" transform="translate(2.68657 -0.0685382)"><path d="M12.605 5.38011C12.605 3.93036 11.6372 2.75511 10.4433 2.75511H2.16176C0.967855 2.75511 0 3.93036 0 5.38011V10.3816C0 11.8314 0.967855 13.0066 2.16176 13.0066H3.78268C4.36249 13.0066 4.918 13.2895 5.32443 13.7916L5.86202 14.4558C6.10406 14.7548 6.50098 14.7548 6.74302 14.4558L7.28061 13.7916C7.68704 13.2895 8.24255 13.0066 8.82236 13.0066H10.4433C11.6372 13.0066 12.605 11.8314 12.605 10.3816V5.38011Z"/>
</clipPath><clipPath id="bgblur_1_0_179_clip_path" transform="translate(2.68657 -0.0685382)"><path fill-rule="evenodd" clip-rule="evenodd" d="M10.4433 2.83011H2.16176C1.00197 2.83011 0.0617647 3.97178 0.0617647 5.38011V10.3816C0.0617647 11.79 1.00197 12.9316 2.16176 12.9316H3.78268C4.37906 12.9316 4.95044 13.2226 5.36848 13.739L5.90607 14.4032C6.12391 14.6723 6.48114 14.6723 6.69897 14.4032L7.23656 13.739C7.6546 13.2226 8.22598 12.9316 8.82236 12.9316H10.4433C11.6031 12.9316 12.5433 11.79 12.5433 10.3816V5.38011C12.5433 3.97178 11.6031 2.83011 10.4433 2.83011ZM10.4433 2.75511C11.6372 2.75511 12.605 3.93036 12.605 5.38011V10.3816C12.605 11.8314 11.6372 13.0066 10.4433 13.0066H8.82236C8.24255 13.0066 7.68704 13.2895 7.28061 13.7916L6.74302 14.4558C6.50098 14.7548 6.10406 14.7548 5.86202 14.4558L5.32443 13.7916C4.918 13.2895 4.36249 13.0066 3.78268 13.0066H2.16176C0.967855 13.0066 0 11.8314 0 10.3816V5.38011C0 3.93036 0.967855 2.75511 2.16176 2.75511H10.4433Z"/>
</clipPath><linearGradient id="paint0_linear_0_179" x1="1.34888" y1="3.85532" x2="14.6251" y2="11.1216" gradientUnits="userSpaceOnUse">
<stop stop-color="#5A81FF" stop-opacity="0.9"/>
<stop offset="0.447036" stop-color="#567DFF" stop-opacity="0.955296"/>
<stop offset="1" stop-color="#4E78FF" stop-opacity="0.9"/>
</linearGradient>
<linearGradient id="paint1_linear_0_179" x1="1.81401" y1="2.32921" x2="13.2869" y2="9.40988" gradientUnits="userSpaceOnUse">
<stop offset="0.188941" stop-color="#E7F0FF" stop-opacity="0.523483"/>
<stop offset="0.526042" stop-color="#88A4FF"/>
<stop offset="1" stop-color="#B4D2FF" stop-opacity="0.1"/>
</linearGradient>
<radialGradient id="paint2_radial_0_179" cx="0" cy="0" r="1" gradientTransform="matrix(6.23275 -7.27564 7.69058 15.3431 1.88378 14.2897)" gradientUnits="userSpaceOnUse">
<stop stop-color="white"/>
<stop offset="1" stop-color="white" stop-opacity="0"/>
</radialGradient>
</defs>
</svg>
